<svg id="visual" viewBox="0 0 900 600" width="900" height="600" xmlns="http://www.w3.org/2000/svg" xmlns:xlink="http://www.w3.org/1999/xlink" version="1.1"><rect x="0" y="0" width="900" height="600" fill="#001220"></rect><defs><linearGradient id="grad1_0" x1="33.3%" y1="0%" x2="100%" y2="100%"><stop offset="20%" stop-color="#001220" stop-opacity="1"></stop><stop offset="80%" stop-color="#001220" stop-opacity="1"></stop></linearGradient></defs><defs><linearGradient id="grad2_0" x1="0%" y1="0%" x2="66.7%" y2="100%"><stop offset="20%" stop-color="#001220" stop-opacity="1"></stop><stop offset="80%" stop-color="#001220" stop-opacity="1"></stop></linearGradient></defs><g transform="translate(900, 0)"><path d="M0 243.4C-33.3 241.6 -66.7 239.9 -93.1 224.8C-119.6 209.8 -139.1 181.4 -156.3 156.3C-173.4 131.2 -188.2 109.3 -202.3 83.8C-216.5 58.3 -229.9 29.2 -243.4 0L0 0Z" fill="#FBAE3C"></path></g><g transform="translate(0, 600)"><path d="M0 -243.4C29.9 -226.6 59.8 -209.9 78.5 -189.4C97.1 -168.9 104.4 -144.7 130.8 -130.8C157.3 -116.9 202.9 -113.2 224.8 -93.1C246.8 -73 245.1 -36.5 243.4 0L0 0Z" fill="#FBAE3C"></path></g></svg>